<svg xmlns="http://www.w3.org/2000/svg" viewBox="0 0 36 36">
  <!-- Rounded head with tentacles blended into the lower edge -->
  <ellipse cx="18" cy="12.5" rx="8.5" ry="7.6" fill="black"/>

  <path d="M13.6 15.4 C11.7 18.2 9.3 19.7 6.9 20" fill="none" stroke="black" stroke-linecap="round" stroke-width="3.9"/>
  <path d="M14.8 16.1 C13.1 19.2 11.4 21.3 9.7 23.1" fill="none" stroke="black" stroke-linecap="round" stroke-width="3.9"/>
  <path d="M16.1 17 C15 20.8 13.8 23.6 12.2 26.4" fill="none" stroke="black" stroke-linecap="round" stroke-width="3.9"/>
  <path d="M17.5 17.5 C17 21.2 16.6 24.4 16.1 27.9" fill="none" stroke="black" stroke-linecap="round" stroke-width="3.9"/>
  <path d="M20.5 17.5 C21 21.2 21.4 24.4 21.9 27.9" fill="none" stroke="black" stroke-linecap="round" stroke-width="3.9"/>
  <path d="M21.9 17 C23 20.8 24.2 23.6 25.8 26.4" fill="none" stroke="black" stroke-linecap="round" stroke-width="3.9"/>
  <path d="M23.2 16.1 C24.9 19.2 26.6 21.3 28.3 23.1" fill="none" stroke="black" stroke-linecap="round" stroke-width="3.9"/>
  <path d="M24.4 15.4 C26.3 18.2 28.7 19.7 31.1 20" fill="none" stroke="black" stroke-linecap="round" stroke-width="3.9"/>

  <circle cx="15.1" cy="12.1" r="1.25" fill="white"/>
  <circle cx="20.9" cy="12.1" r="1.25" fill="white"/>

  <!-- Notification dot -->
  <circle cx="29" cy="6.8" r="5.6" fill="white"/>
  <circle cx="29" cy="6.8" r="3.5" fill="black"/>
</svg>
