<svg width="1024" height="1024" viewBox="0 0 1024 1024" fill="none" xmlns="http://www.w3.org/2000/svg">
  <defs>
    <linearGradient id="panel" x1="142" y1="116" x2="882" y2="906" gradientUnits="userSpaceOnUse">
      <stop offset="0" stop-color="#1C1E48"/>
      <stop offset="0.48" stop-color="#151736"/>
      <stop offset="1" stop-color="#0A0B1B"/>
    </linearGradient>
    <radialGradient id="panelGlow" cx="0" cy="0" r="1" gradientUnits="userSpaceOnUse" gradientTransform="translate(356 266) rotate(33) scale(760)">
      <stop offset="0" stop-color="#314B8F" stop-opacity="0.58"/>
      <stop offset="0.55" stop-color="#1D295F" stop-opacity="0.22"/>
      <stop offset="1" stop-color="#0A0B1B" stop-opacity="0"/>
    </radialGradient>
    <radialGradient id="symbolGlow" cx="0" cy="0" r="1" gradientUnits="userSpaceOnUse" gradientTransform="translate(514 454) rotate(90) scale(336)">
      <stop offset="0" stop-color="#70F5EE" stop-opacity="0.30"/>
      <stop offset="0.5" stop-color="#4DD7FF" stop-opacity="0.14"/>
      <stop offset="1" stop-color="#0A0B1B" stop-opacity="0"/>
    </radialGradient>
    <linearGradient id="neon" x1="252" y1="280" x2="790" y2="760" gradientUnits="userSpaceOnUse">
      <stop offset="0" stop-color="#67F0EE"/>
      <stop offset="0.56" stop-color="#59C8FF"/>
      <stop offset="1" stop-color="#D973FF"/>
    </linearGradient>
    <filter id="panelShadow" x="40" y="44" width="944" height="948" filterUnits="userSpaceOnUse" color-interpolation-filters="sRGB">
      <feDropShadow dx="0" dy="28" stdDeviation="20" flood-color="#02040E" flood-opacity="0.56"/>
    </filter>
    <filter id="neonGlow" x="142" y="138" width="740" height="748" filterUnits="userSpaceOnUse" color-interpolation-filters="sRGB">
      <feDropShadow dx="0" dy="0" stdDeviation="10" flood-color="#59E5F6" flood-opacity="0.66"/>
      <feDropShadow dx="0" dy="0" stdDeviation="18" flood-color="#B77EFF" flood-opacity="0.24"/>
    </filter>
  </defs>

  <g filter="url(#panelShadow)">
    <rect x="64" y="64" width="896" height="896" rx="210" fill="url(#panel)"/>
    <rect x="64" y="64" width="896" height="896" rx="210" fill="url(#panelGlow)"/>
    <rect x="64.5" y="64.5" width="895" height="895" rx="209.5" stroke="#A6CFFF" stroke-opacity="0.14"/>
  </g>

  <rect x="92" y="92" width="840" height="840" rx="188" fill="url(#symbolGlow)"/>

  <g filter="url(#neonGlow)" stroke="url(#neon)" stroke-linecap="round" stroke-linejoin="round">
    <path d="M512 166L760 246L784 546C784 698 688 810 512 858C336 810 240 698 240 546L264 246L512 166Z" stroke-width="19"/>
    <path d="M512 166V212" stroke-width="16"/>
    <path d="M264 246L312 292" stroke-width="13"/>
    <path d="M760 246L712 292" stroke-width="13"/>
    <path d="M512 220V252" stroke-width="13"/>
    <circle cx="512" cy="274" r="12" fill="#0F132A" stroke-width="9"/>

    <circle cx="512" cy="470" r="122" stroke-width="18"/>
    <circle cx="512" cy="470" r="78" stroke-width="16"/>
    <circle cx="512" cy="470" r="34" fill="#0E1227" stroke-width="12"/>
    <circle cx="532" cy="452" r="10" fill="#F8FCFF" stroke="none"/>

    <path d="M434 386C457 362 483 350 512 350C563 350 610 385 634 434" stroke-width="14"/>
    <path d="M390 436C372 472 368 520 380 560" stroke-width="14"/>
    <path d="M634 434C652 470 656 520 644 560" stroke-width="14"/>

    <path d="M402 326C350 368 326 452 342 534C354 596 395 640 454 650" stroke-width="18"/>
    <path d="M622 326C674 368 698 452 682 534C670 596 629 640 570 650" stroke-width="18"/>
    <path d="M344 346C300 394 286 468 298 530C309 586 344 624 392 636" stroke-width="16"/>
    <path d="M680 346C724 394 738 468 726 530C715 586 680 624 632 636" stroke-width="16"/>
    <path d="M420 622C374 686 320 714 282 700C250 688 238 654 252 620C267 584 304 566 344 576" stroke-width="16"/>
    <path d="M604 622C650 686 704 714 742 700C774 688 786 654 772 620C757 584 720 566 680 576" stroke-width="16"/>

    <circle cx="344" cy="346" r="12" fill="#0F132A" stroke-width="9"/>
    <circle cx="680" cy="346" r="12" fill="#0F132A" stroke-width="9"/>
    <circle cx="284" cy="700" r="11" fill="#0F132A" stroke-width="8"/>
    <circle cx="740" cy="700" r="11" fill="#0F132A" stroke-width="8"/>
    <circle cx="252" cy="620" r="11" fill="#0F132A" stroke-width="8"/>
    <circle cx="772" cy="620" r="11" fill="#0F132A" stroke-width="8"/>

    <path d="M458 620L512 694L566 620" stroke-width="18"/>
    <path d="M512 694V808" stroke-width="18"/>
    <path d="M474 770L512 808L550 770" stroke-width="16"/>
    <circle cx="512" cy="808" r="11" fill="#0F132A" stroke-width="8"/>
  </g>

  <path d="M156 196C234 120 364 98 512 98C670 98 798 123 870 202" stroke="#F5FBFF" stroke-opacity="0.2" stroke-width="18" stroke-linecap="round"/>
</svg>
